<?xml version="1.0" encoding="UTF-8"?>
<svg version="1.1" xmlns="http://www.w3.org/2000/svg" width="667" height="374">
<path d="M0 0 C1.38348633 0.04737305 1.38348633 0.04737305 2.79492188 0.09570312 C5.05415802 0.17764433 7.30660154 0.29221567 9.5625 0.4375 C10.0575 1.4275 10.0575 1.4275 10.5625 2.4375 C8.25783834 5.60640978 5.79046257 8.17264578 2.8125 10.6875 C-1.137707 14.0385183 -4.45021554 17.74948528 -7.7734375 21.71484375 C-8.32257813 22.28332031 -8.87171875 22.85179687 -9.4375 23.4375 C-10.0975 23.4375 -10.7575 23.4375 -11.4375 23.4375 C-11.7778125 24.241875 -11.7778125 24.241875 -12.125 25.0625 C-13.31387743 27.21380201 -14.49815499 28.68787542 -16.125 30.5 C-16.888125 31.469375 -17.65125 32.43875 -18.4375 33.4375 C-18.1075 34.4275 -17.7775 35.4175 -17.4375 36.4375 C-16.4475 36.7675 -15.4575 37.0975 -14.4375 37.4375 C-12.87528244 39.17518402 -11.38306521 40.97663218 -9.9375 42.8125 C-6.95589629 46.63142047 -6.95589629 46.63142047 -3.65625 50.1640625 C-2.4375 51.4375 -2.4375 51.4375 -2.4375 53.4375 C-1.7775 53.4375 -1.1175 53.4375 -0.4375 53.4375 C0.160625 54.345 0.75875 55.2525 1.375 56.1875 C3.53134092 59.3912065 5.57738817 61.0647188 8.5625 63.4375 C9.59607147 65.08355826 10.60310332 66.74713442 11.5625 68.4375 C12.2225 68.7675 12.8825 69.0975 13.5625 69.4375 C13.789375 68.179375 14.01625 66.92125 14.25 65.625 C15.31031099 60.81976082 17.17288324 56.67198483 19.27734375 52.2421875 C20.89147627 48.7195518 22.16890929 45.12289855 23.4609375 41.47265625 C24.78322316 37.82933725 26.19149879 34.22575019 27.625 30.625 C28.11097656 29.40167969 28.59695312 28.17835938 29.09765625 26.91796875 C30.04486777 24.66739418 31.0610322 22.44410128 32.15625 20.26171875 C33.35552091 17.85318301 34.23195672 15.62900488 35 13.0625 C36.42932115 8.58446725 38.37159912 4.59265684 40.5625 0.4375 C45.8425 0.4375 51.1225 0.4375 56.5625 0.4375 C59.49444611 5.35187795 61.87493904 10.25441305 64 15.5625 C64.30510498 16.31402344 64.61020996 17.06554687 64.92456055 17.83984375 C67.02538011 23.03628762 69.04759836 28.2607118 71.0390625 33.5 C74.41730754 42.30185509 77.98525386 51.03198918 81.49682617 59.78125 C82.52043439 62.33264917 83.54196787 64.88486909 84.5625 67.4375 C84.8925 65.7875 85.2225 64.1375 85.5625 62.4375 C85.8925 62.4375 86.2225 62.4375 86.5625 62.4375 C86.5625 65.7375 86.5625 69.0375 86.5625 72.4375 C80.2925 72.4375 74.0225 72.4375 67.5625 72.4375 C63.5625 64.4375 63.5625 64.4375 63.5625 62.4375 C49.2075 62.9325 49.2075 62.9325 34.5625 63.4375 C33.5725 65.7475 32.5825 68.0575 31.5625 70.4375 C31.2325 71.0975 30.9025 71.7575 30.5625 72.4375 C17.6925 72.4375 4.8225 72.4375 -8.4375 72.4375 C-8.4375 71.7775 -8.4375 71.1175 -8.4375 70.4375 C-9.0975 70.4375 -9.7575 70.4375 -10.4375 70.4375 C-13.4375 66.97596154 -13.4375 66.97596154 -13.4375 64.4375 C-14.4275 64.4375 -15.4175 64.4375 -16.4375 64.4375 C-16.994375 63.385625 -17.55125 62.33375 -18.125 61.25 C-20.12385737 57.74496137 -22.50561438 55.22636681 -25.4375 52.4375 C-27.15038928 50.47188936 -28.79125976 48.46002373 -30.4375 46.4375 C-32.45608399 48.09009525 -33.36189173 48.94178259 -33.76220703 51.56640625 C-33.72909424 52.77103516 -33.72909424 52.77103516 -33.6953125 54 C-33.68113281 54.87914062 -33.66695312 55.75828125 -33.65234375 56.6640625 C-33.62269531 57.57929688 -33.59304687 58.49453125 -33.5625 59.4375 C-33.51910447 61.24990143 -33.47986337 63.06240838 -33.4453125 64.875 C-33.42098145 65.67808594 -33.39665039 66.48117188 -33.37158203 67.30859375 C-33.4375 69.4375 -33.4375 69.4375 -34.4375 72.4375 C-40.0475 72.4375 -45.6575 72.4375 -51.4375 72.4375 C-53.66053603 67.99142793 -52.89083785 62.13183304 -53 57.25 C-53.06251953 56.02990234 -53.12503906 54.80980469 -53.18945312 53.55273438 C-53.3485246 44.67847395 -53.3485246 44.67847395 -50.75292969 41.14282227 C-48.73232759 39.38122972 -46.68243983 37.89743471 -44.4375 36.4375 C-43.12862368 35.22667539 -41.83086711 34.00319525 -40.5625 32.75 C-40.00820312 32.20988281 -39.45390625 31.66976562 -38.8828125 31.11328125 C-37.35721059 29.49259313 -37.35721059 29.49259313 -36.48828125 27.453125 C-35.19768108 24.9774756 -33.63935537 23.65580419 -31.5 21.875 C-27.96943328 18.91196363 -25.00632205 16.29073307 -22.4375 12.4375 C-20.79447047 10.74752677 -19.12278688 9.08533606 -17.4375 7.4375 C-16.9626416 6.84864014 -16.4877832 6.25978027 -15.99853516 5.65307617 C-11.12298888 -0.07061984 -7.28278296 -0.47712977 0 0 Z M48.5625 24.4375 C47.89130451 25.8937545 47.22568193 27.35257867 46.5625 28.8125 C46.19125 29.62460938 45.82 30.43671875 45.4375 31.2734375 C44.43754987 33.35748433 44.43754987 33.35748433 44.5625 35.4375 C47.8625 35.4375 51.1625 35.4375 54.5625 35.4375 C52.9125 31.8075 51.2625 28.1775 49.5625 24.4375 C49.2325 24.4375 48.9025 24.4375 48.5625 24.4375 Z M35.5625 40.4375 C34.19711062 43.16827876 34.43018174 45.39310367 34.4375 48.4375 C34.43492187 49.51 34.43234375 50.5825 34.4296875 51.6875 C34.3752659 54.39932052 34.3752659 54.39932052 35.5625 56.4375 C38.2025 56.4375 40.8425 56.4375 43.5625 56.4375 C43.2325 55.921875 42.9025 55.40625 42.5625 54.875 C40.91323906 50.85492646 40.91323906 47.02007354 42.5625 43 C42.8925 42.484375 43.2225 41.96875 43.5625 41.4375 C42.37825674 40.02172523 42.37825674 40.02172523 39 40.375 C37.2984375 40.4059375 37.2984375 40.4059375 35.5625 40.4375 Z M51.5625 40.4375 C52.5525 41.4584375 52.5525 41.4584375 53.5625 42.5 C56.03977621 46.13849943 55.95556858 48.11374557 55.5625 52.4375 C55.0625 54.875 55.0625 54.875 54.5625 56.4375 C57.2025 56.4375 59.8425 56.4375 62.5625 56.4375 C63.67102275 52.00340901 63.78243456 47.98281422 63.5625 43.4375 C62.9025 42.4475 62.2425 41.4575 61.5625 40.4375 C59.12556689 40.07333953 59.12556689 40.07333953 56.4375 40.25 C55.52742188 40.27707031 54.61734375 40.30414063 53.6796875 40.33203125 C52.98101562 40.36683594 52.28234375 40.40164062 51.5625 40.4375 Z M46.5625 45.4375 C45.9025 46.7575 45.2425 48.0775 44.5625 49.4375 C45.2225 49.4375 45.8825 49.4375 46.5625 49.4375 C46.8925 50.4275 47.2225 51.4175 47.5625 52.4375 C48.8825 51.7775 50.2025 51.1175 51.5625 50.4375 C51.5625 49.1175 51.5625 47.7975 51.5625 46.4375 C51.5625 46.1075 51.5625 45.7775 51.5625 45.4375 C49.9125 45.4375 48.2625 45.4375 46.5625 45.4375 Z " fill="#111111" transform="translate(143.4375,150.5625)"/>
<path d="M0 0 C1.48445129 1.07136536 1.48445129 1.07136536 3 3 C3.32279968 6.05619812 3.32279968 6.05619812 3.2487793 9.8581543 C3.23946381 10.55109589 3.23014832 11.24403748 3.22055054 11.95797729 C3.18618899 14.2472227 3.1302961 16.53541084 3.07421875 18.82421875 C3.0461849 20.41174574 3.01949456 21.99929697 2.99409485 23.58686829 C2.92364052 27.7645499 2.83492263 31.94165239 2.74243164 36.11889648 C2.65126605 40.38179939 2.57732887 44.64499697 2.50195312 48.90820312 C2.35152129 57.2725374 2.18020825 65.63625421 2 74 C-3.61 74 -9.22 74 -15 74 C-16.2414206 70.27573819 -16.01823389 66.91648103 -15.87890625 63.05078125 C-15.84348976 61.89185616 -15.84348976 61.89185616 -15.80735779 60.70951843 C-15.73083079 58.2436536 -15.64675953 55.77811154 -15.5625 53.3125 C-15.50926832 51.63998971 -15.45652799 49.96746371 -15.40429688 48.29492188 C-15.27523053 44.19641048 -15.13939792 40.09817248 -15 36 C-15.66 36 -16.32 36 -17 36 C-17.0825 36.86625 -17.165 37.7325 -17.25 38.625 C-18 42 -18 42 -19.9375 44.8125 C-21.85689948 47.77884465 -22.3858433 49.2206023 -23 52.5625 C-23.79017738 56.73519106 -25.27202473 58.71038276 -28 62 C-29.16375119 64.56433595 -30.17630554 67.15775216 -31.16796875 69.79296875 C-32 72 -32 72 -33 74 C-36.05028307 74.28776255 -38.95933085 74.43283547 -42 74 C-43.9375 71.8125 -43.9375 71.8125 -45 69 C-46.94520167 63.96841167 -49.25986417 59.12973762 -51.5625 54.25390625 C-53 51 -53 51 -53.9375 48.15234375 C-55.33908239 43.99397246 -57.21777459 40.01000718 -59 36 C-59.33 48.54 -59.66 61.08 -60 74 C-65.28 74 -70.56 74 -76 74 C-76 50.24 -76 26.48 -76 2 C-69.4 2 -62.8 2 -56 2 C-55.34 3.98 -54.68 5.96 -54 8 C-53.34 8.66 -52.68 9.32 -52 10 C-51.31875294 11.99508067 -50.65572791 13.99638693 -50 16 C-49.41026182 17.36051226 -48.80464527 18.71419868 -48.1875 20.0625 C-45.96098329 24.93766113 -44.14723436 29.93949308 -42.34375 34.984375 C-40.94225502 38.12959048 -39.25785389 40.41686207 -37 43 C-33.78291364 36.75885247 -30.73502334 30.54735836 -28.20703125 23.99609375 C-26.50351888 19.76763424 -24.660127 15.60464461 -22.8125 11.4375 C-22.45494629 10.62651855 -22.09739258 9.81553711 -21.72900391 8.97998047 C-21.22312744 7.84326904 -21.22312744 7.84326904 -20.70703125 6.68359375 C-20.25034058 5.65576782 -20.25034058 5.65576782 -19.78442383 4.60717773 C-19 3 -19 3 -18 2 C-14.36046804 1.72929101 -10.72756476 1.55354483 -7.08203125 1.39453125 C-3.22526907 1.57300905 -3.22526907 1.57300905 0 0 Z M-16 33 C-15 35 -15 35 -15 35 Z " fill="#0D0D0D" transform="translate(307,149)"/>
<path d="M0 0 C0.02325991 8.18912364 0.04098426 16.37823326 0.05181217 24.56738186 C0.0570113 28.37069816 0.06405447 32.17399171 0.07543945 35.97729492 C0.08637456 39.65368432 0.09229916 43.33005196 0.09487724 47.00645638 C0.09671247 48.40293787 0.10029586 49.7994183 0.10573006 51.19589043 C0.13318402 58.54926952 0.00838723 65.71100028 -1 73 C-6.28 73 -11.56 73 -17 73 C-17 72.34 -17 71.68 -17 71 C-18.32 70.67 -19.64 70.34 -21 70 C-21.33 68.02 -21.66 66.04 -22 64 C-22.99 63.67 -23.98 63.34 -25 63 C-26.59898589 60.92305637 -28.06322884 58.87110765 -29.5 56.6875 C-32.53708727 52.12374281 -32.53708727 52.12374281 -35.78125 47.70703125 C-37 46 -37 46 -37 44 C-37.66 44 -38.32 44 -39 44 C-40.18359375 42.35546875 -40.18359375 42.35546875 -41.4375 40.1875 C-43.06284575 37.39027486 -44.67973631 35.24594493 -47 33 C-46.99214478 34.3912207 -46.99214478 34.3912207 -46.98413086 35.81054688 C-46.96698673 39.28451166 -46.95450035 42.75843082 -46.94506836 46.23242188 C-46.94007057 47.72982497 -46.9332701 49.22722327 -46.92456055 50.72460938 C-46.91229377 52.88933505 -46.90672603 55.05399565 -46.90234375 57.21875 C-46.89448853 59.1668457 -46.89448853 59.1668457 -46.88647461 61.15429688 C-47.00349946 65.11854499 -47.50808134 69.06465072 -48 73 C-53.61 73 -59.22 73 -65 73 C-66.12234512 69.63296464 -66.12699668 67.08982459 -66.12939453 63.54077148 C-66.13114685 62.89005676 -66.13289917 62.23934204 -66.13470459 61.56890869 C-66.13910328 59.41960986 -66.13619244 57.27039341 -66.1328125 55.12109375 C-66.13348603 53.62801599 -66.13445646 52.13493834 -66.13571167 50.64186096 C-66.13718589 47.51391556 -66.13504264 44.38599872 -66.13037109 41.25805664 C-66.12466903 37.24400533 -66.12795757 33.23002081 -66.13394356 29.21597195 C-66.1375524 26.13368728 -66.13640918 23.05141852 -66.13381577 19.96913338 C-66.13314765 18.48871922 -66.13397091 17.00830364 -66.13629532 15.52789116 C-66.13882767 13.461833 -66.13497325 11.39588399 -66.12939453 9.32983398 C-66.12859894 8.15307602 -66.12780334 6.97631805 -66.12698364 5.76390076 C-66 3 -66 3 -65 1 C-49.94088623 -0.5245447 -49.94088623 -0.5245447 -45.5234375 2.9453125 C-43.77799994 5.55151379 -42.38905789 8.18995185 -41 11 C-39.88680322 12.52437757 -38.74297814 14.02710985 -37.5625 15.5 C-35 18.76501305 -35 18.76501305 -35 21 C-34.34 21 -33.68 21 -33 21 C-31.96004568 22.64203313 -30.96970895 24.31552906 -30 26 C-28.48101592 28.09992887 -26.93816695 30.1827499 -25.375 32.25 C-24.96765625 32.79140625 -24.5603125 33.3328125 -24.140625 33.890625 C-22.18687817 36.5439437 -22.18687817 36.5439437 -20 39 C-19.67 26.46 -19.34 13.92 -19 1 C-2 0 -2 0 0 0 Z " fill="#131312" transform="translate(522,150)"/>
<path d="M0 0 C40.56521739 0 40.56521739 0 51 6 C51.495 6.99 51.495 6.99 52 8 C52.60585938 8.26683594 53.21171875 8.53367188 53.8359375 8.80859375 C58.83136035 11.55878142 61.8591985 18.1056521 63.89453125 23.26953125 C66.67207355 34.04000103 65.88402663 45.72303056 60.640625 55.546875 C57.86769493 60.03501955 56.14588194 62.32540791 51 64 C51 64.66 51 65.32 51 66 C49.44148245 66.82011312 47.87798284 67.63076213 46.3125 68.4375 C45.44238281 68.88996094 44.57226562 69.34242188 43.67578125 69.80859375 C30.8309147 75.5278409 10.37510274 72 0 72 C0 48.24 0 24.48 0 0 Z M17 16 C17 29.2 17 42.4 17 56 C23.6 56 30.2 56 37 56 C37 55.34 37 54.68 37 54 C38.98 53.505 38.98 53.505 41 53 C41 52.34 41 51.68 41 51 C42.485 50.505 42.485 50.505 44 50 C47.93253086 44.22615034 49.06064676 37.82791354 48 31 C47.11553098 27.937526 45.8435557 25.59166526 44 23 C43.54496094 22.32324219 43.08992188 21.64648438 42.62109375 20.94921875 C40.67495062 18.49418688 40.67495062 18.49418688 36 16 C29.73 16 23.46 16 17 16 Z " fill="#111110" transform="translate(313,151)"/>
<path d="M0 0 C16.83 0 33.66 0 51 0 C51 3.96 51 7.92 51 12 C51.66 12.33 52.32 12.66 53 13 C52.34 13 51.68 13 51 13 C51 13.99 51 14.98 51 16 C40.11 16 29.22 16 18 16 C18 20.29 18 24.58 18 29 C27.57 29 37.14 29 47 29 C47.495 35.93 47.495 35.93 48 43 C38.43 43.33 28.86 43.66 19 44 C19 47.96 19 51.92 19 56 C29.56 56 40.12 56 51 56 C51.33 56.66 51.66 57.32 52 58 C52.66 58 53.32 58 54 58 C53.9278125 58.77085937 53.855625 59.54171875 53.78125 60.3359375 C53.64203125 61.84027344 53.64203125 61.84027344 53.5 63.375 C53.4071875 64.37273437 53.314375 65.37046875 53.21875 66.3984375 C52.97207053 68.89703736 52.97207053 68.89703736 53 71 C50.54557152 72.22721424 48.94282486 72.12691608 46.19897461 72.12939453 C45.20131577 72.13254669 44.20365692 72.13569885 43.17576599 72.13894653 C41.55542198 72.13591019 41.55542198 72.13591019 39.90234375 72.1328125 C38.79774307 72.13376923 37.6931424 72.13472595 36.55506897 72.13571167 C34.21729475 72.13639301 31.87951864 72.13454196 29.54174805 72.13037109 C25.94901312 72.12501716 22.35640292 72.1303203 18.76367188 72.13671875 C16.49739556 72.13605806 14.23111931 72.13477709 11.96484375 72.1328125 C10.88259018 72.13483673 9.80033661 72.13686096 8.68528748 72.13894653 C7.69078079 72.13579437 6.69627411 72.13264221 5.67163086 72.12939453 C4.79163925 72.12859894 3.91164764 72.12780334 3.00498962 72.12698364 C1 72 1 72 0 71 C-0.09432985 68.79132169 -0.11742431 66.57958479 -0.11352539 64.36889648 C-0.11367142 63.67624695 -0.11381744 62.98359741 -0.1139679 62.2699585 C-0.11326874 59.97030554 -0.10547628 57.67073263 -0.09765625 55.37109375 C-0.09579208 53.78068588 -0.09436817 52.19027743 -0.09336853 50.59986877 C-0.08954329 46.4060407 -0.07971295 42.21224705 -0.06866455 38.01843262 C-0.05665597 32.99076295 -0.05204822 27.96308181 -0.04621124 22.93540192 C-0.03650119 15.29024398 -0.01734471 7.64516162 0 0 Z M51 61 C52 63 52 63 52 63 Z " fill="#10100F" transform="translate(524,151)"/>
<path d="M0 0 C1.25 2.0625 1.25 2.0625 2 4 C2.66 4 3.32 4 4 4 C6.78602464 7.01819336 7.8324936 10.108312 9 14 C9.34417969 14.85335937 9.68835938 15.70671875 10.04296875 16.5859375 C11.29117999 21.03874006 11.29200377 25.15058709 11.25 29.75 C11.26160156 31.04357422 11.26160156 31.04357422 11.2734375 32.36328125 C11.27085937 33.18699219 11.26828125 34.01070312 11.265625 34.859375 C11.26336914 35.60670898 11.26111328 36.35404297 11.25878906 37.12402344 C11 39 11 39 9 41 C8.22354924 42.38129465 7.47699706 43.77954902 6.75 45.1875 C1.69849925 54.40167439 -4.41941521 60.09089927 -14.5144043 63.36279297 C-18.51872073 64.38933907 -22.3836421 64.48759258 -26.5 64.4375 C-27.32862549 64.43427734 -28.15725098 64.43105469 -29.01098633 64.42773438 C-35.1787082 64.28671619 -39.65407331 63.22772932 -45 60 C-44.1920618 55.72428211 -42.1341984 53.98131067 -39 51 C-38.34 50.01 -37.68 49.02 -37 48 C-36.09378906 48.09539062 -35.18757813 48.19078125 -34.25390625 48.2890625 C-26.97713589 48.9512871 -21.02414195 49.05880023 -14 47 C-14 46.34 -14 45.68 -14 45 C-13.2575 44.525625 -12.515 44.05125 -11.75 43.5625 C-7.24290816 39.36270987 -5.24878883 33.69629112 -4.8359375 27.5625 C-5.28789825 21.36418108 -7.57618603 15.42381397 -12 11 C-11.65960792 7.59607918 -10.04742235 5.6445872 -8 3 C-7.67 2.01 -7.34 1.02 -7 0 C-3.87438528 -1.04187157 -2.95319818 -1.23843794 0 0 Z " fill="#141413" transform="translate(443,160)"/>
<path d="M0 0 C0.495 2.475 0.495 2.475 1 5 C0.21625 5.226875 -0.5675 5.45375 -1.375 5.6875 C-4.23222853 6.74935407 -4.23222853 6.74935407 -5 9.5625 C-6 12 -6 12 -8.1875 13 C-12.08022082 13 -14.51418338 11.70873364 -18 10 C-18 7.03 -18 4.06 -18 1 C-18.66 1 -19.32 1 -20 1 C-19.97679687 1.62648437 -19.95359375 2.25296875 -19.9296875 2.8984375 C-19.91164063 3.71570313 -19.89359375 4.53296875 -19.875 5.375 C-19.85179687 6.18710938 -19.82859375 6.99921875 -19.8046875 7.8359375 C-20 10 -20 10 -22 12 C-24.3828125 12.4140625 -24.3828125 12.4140625 -27.125 12.625 C-28.03507812 12.69976562 -28.94515625 12.77453125 -29.8828125 12.8515625 C-30.58148438 12.90054688 -31.28015625 12.94953125 -32 13 C-32.433125 12.175 -32.86625 11.35 -33.3125 10.5 C-33.869375 9.675 -34.42625 8.85 -35 8 C-35.99 8 -36.98 8 -38 8 C-37.154375 8.9075 -36.30875 9.815 -35.4375 10.75 C-33.00915136 13.68885375 -33.00915136 13.68885375 -32.9375 16.125 C-34 18 -34 18 -35.9375 19.8125 C-40.01738222 24.13964781 -40.45187415 29.92157649 -40.32421875 35.65625 C-39.66869719 40.39496006 -37.81168303 45.23134982 -34.35546875 48.60546875 C-33.90816406 49.06566406 -33.46085937 49.52585938 -33 50 C-33.19504065 53.80329265 -34.42786662 56.22209595 -37 59 C-37.66 59 -38.32 59 -39 59 C-39.66 60.32 -40.32 61.64 -41 63 C-43 63 -43 63 -44.7265625 61.3203125 C-45.35304688 60.59585938 -45.97953125 59.87140625 -46.625 59.125 C-47.25664062 58.40570313 -47.88828125 57.68640625 -48.5390625 56.9453125 C-50 55 -50 55 -50 53 C-50.66 53 -51.32 53 -52 53 C-56.44565902 40.87367116 -58.56955077 28.17898602 -53 16 C-46.68488606 6.41180872 -39.34067685 -0.90786529 -27.984375 -3.52734375 C-17.80603819 -5.13935783 -9.51561525 -3.8405366 0 0 Z " fill="#1A1B1A" transform="translate(436,154)"/>
<path d="M0 0 C5.61 0 11.22 0 17 0 C18.8397747 3.67954939 18.10192207 7.9627537 18 12 C18.02707031 13.27037109 18.02707031 13.27037109 18.0546875 14.56640625 C17.90786124 21.26797639 15.4794239 24.58964245 10.91015625 29.3828125 C9 31 9 31 7 31 C6.773125 31.598125 6.54625 32.19625 6.3125 32.8125 C5 35 5 35 0 38 C0 25.46 0 12.92 0 0 Z " fill="#10100B" transform="translate(92,151)"/>
<path d="M0 0 C2.9375 0.875 2.9375 0.875 5 3 C6.90490746 7.43731385 8.56217415 11.31347755 7 16 C6.34 16 5.68 16 5 16 C3.55896461 19.19086407 2.75048221 22.20160183 2.125 25.625 C1.49461114 28.55704123 1.16770709 29.80337789 -0.8125 32.125 C-3.72554161 33.29021664 -5.06880581 33.09919782 -8 32 C-11.46707715 29.11186552 -12.60737899 26.87313268 -13.5625 22.5 C-14.24221732 19.4264956 -14.70860451 17.38758429 -16.609375 14.859375 C-18 13 -18 13 -17.6875 9.75 C-17.460625 8.8425 -17.23375 7.935 -17 7 C-16.34 7 -15.68 7 -15 7 C-14.731875 6.21625 -14.46375 5.4325 -14.1875 4.625 C-11.42332987 -1.48527081 -5.77168379 -0.54484695 0 0 Z M-11 7 C-12.17688005 10.04604247 -12.47432 11.90642888 -11.15625 14.9453125 C-10.17675723 16.6734176 -9.09418857 18.34213852 -8 20 C-6.02 20 -4.04 20 -2 20 C1.01576302 14.90062714 1.01576302 14.90062714 2.0625 9.1875 C0.62520281 6.22835872 -1.05690968 5.36387112 -4 4 C-7.07258075 4 -8.59196729 5.14766715 -11 7 Z " fill="#3B3B39" transform="translate(422,173)"/>
<path d="M0 0 C4.45827926 -0.0578304 8.9164628 -0.09353855 13.375 -0.125 C15.28152344 -0.15013672 15.28152344 -0.15013672 17.2265625 -0.17578125 C18.43828125 -0.18222656 19.65 -0.18867188 20.8984375 -0.1953125 C22.01911621 -0.20578613 23.13979492 -0.21625977 24.29443359 -0.22705078 C27 0 27 0 29 2 C29.14497985 4.58064129 29.18677545 7.04943884 29.125 9.625 C29.11597656 10.33140625 29.10695312 11.0378125 29.09765625 11.765625 C29.07407603 13.51056098 29.03820461 15.25532295 29 17 C26.18175808 18.40912096 23.82748718 18.11183553 20.6796875 18.09765625 C19.42285156 18.09443359 18.16601562 18.09121094 16.87109375 18.08789062 C15.55238281 18.07951172 14.23367187 18.07113281 12.875 18.0625 C11.53515789 18.05748489 10.195314 18.05292201 8.85546875 18.04882812 C5.57026794 18.03701086 2.28515603 18.02053617 -1 18 C-0.505 16.515 -0.505 16.515 0 15 C0 15.66 0 16.32 0 17 C3.465 16.505 3.465 16.505 7 16 C6.34 15.01 5.68 14.02 5 13 C4.69108907 8.7524747 4.66953299 5.6413547 7 2 C4.69 1.67 2.38 1.34 0 1 C0 0.67 0 0.34 0 0 Z M16 1 C16.99 2.0209375 16.99 2.0209375 18 3.0625 C20.47727621 6.70099943 20.39306858 8.67624557 20 13 C19.5 15.4375 19.5 15.4375 19 17 C21.64 17 24.28 17 27 17 C28.10852275 12.56590901 28.21993456 8.54531422 28 4 C27.34 3.01 26.68 2.02 26 1 C23.56306689 0.63583953 23.56306689 0.63583953 20.875 0.8125 C19.96492188 0.83957031 19.05484375 0.86664063 18.1171875 0.89453125 C17.41851562 0.92933594 16.71984375 0.96414062 16 1 Z M11 6 C10.34 7.32 9.68 8.64 9 10 C9.66 10 10.32 10 11 10 C11.33 10.99 11.66 11.98 12 13 C13.32 12.34 14.64 11.68 16 11 C16 9.68 16 8.36 16 7 C16 6.67 16 6.34 16 6 C14.35 6 12.7 6 11 6 Z " fill="#464645" transform="translate(179,190)"/>
<path d="M0 0 C0.99 0.66 1.98 1.32 3 2 C2.34 2 1.68 2 1 2 C0.87625 2.804375 0.7525 3.60875 0.625 4.4375 C0.315625 6.2009375 0.315625 6.2009375 0 8 C-0.12246094 8.75796875 -0.24492187 9.5159375 -0.37109375 10.296875 C-1.50066967 16.41457824 -1.50066967 16.41457824 -3.8125 19.125 C-6.72554161 20.29021664 -8.06880581 20.09919782 -11 19 C-13.36376355 17.09585714 -14.72576206 15.71723768 -15.8125 12.875 C-16 11 -16 11 -15 9 C-14.34 9 -13.68 9 -13 9 C-13 8.34 -13 7.68 -13 7 C-10.36 7 -7.72 7 -5 7 C-4.67 5.68 -4.34 4.36 -4 3 C-3.01 3 -2.02 3 -1 3 C-0.67 2.01 -0.34 1.02 0 0 Z " fill="#191918" transform="translate(425,186)"/>
<path d="M0 0 C8.25 0 16.5 0 25 0 C24.34 1.32 23.68 2.64 23 4 C15.41 4 7.82 4 0 4 C0 2.68 0 1.36 0 0 Z " fill="#010101" transform="translate(180,208)"/>
<path d="M0 0 C4.29 0.33 8.58 0.66 13 1 C12 5 12 5 9 7 C5.67499764 6.82948706 4.25614133 6.2146049 1.6875 4.0625 C0 2 0 2 0 0 Z " fill="#595959" transform="translate(410,199)"/>
<path d="M0 0 C0.33 0.66 0.66 1.32 1 2 C5.64586892 1.51515724 5.64586892 1.51515724 10 0 C11.7015625 0.2475 11.7015625 0.2475 13.4375 0.5 C16.95312924 1.26285394 16.95312924 1.26285394 20 0 C20 0.66 20 1.32 20 2 C22.64 2 25.28 2 28 2 C28 2.33 28 2.66 28 3 C18.76 3 9.52 3 0 3 C0 2.01 0 1.02 0 0 Z " fill="#C6C6C5" transform="translate(178,205)"/>
<path d="M0 0 C1.0625 1.8125 1.0625 1.8125 2 4 C1.67 4.99 1.34 5.98 1 7 C-1.8125 8.375 -1.8125 8.375 -5 9 C-7.375 7.625 -7.375 7.625 -9 6 C-5.91190305 4.23537317 -4.76687864 4 -1 4 C-0.67 2.68 -0.34 1.36 0 0 Z " fill="#20201F" transform="translate(198,198)"/>
<path d="M0 0 C1.4656401 0.03315928 2.93087264 0.09269146 4.39453125 0.17578125 C5.14412109 0.19833984 5.89371094 0.22089844 6.66601562 0.24414062 C8.51387595 0.30298968 10.36070792 0.39267187 12.20703125 0.48828125 C12.20703125 0.81828125 12.20703125 1.14828125 12.20703125 1.48828125 C11.32660156 1.49085938 10.44617188 1.4934375 9.5390625 1.49609375 C3.03728601 1.47117604 3.03728601 1.47117604 -2.76953125 3.890625 C-4.28253244 5.68270584 -4.28253244 5.68270584 -5.79296875 8.48828125 C-6.79296875 5.48828125 -6.79296875 5.48828125 -5.8671875 2.8203125 C-3.79296875 0.48828125 -3.79296875 0.48828125 0 0 Z " fill="#4B4C47" transform="translate(187.79296875,150.51171875)"/>
<path d="M0 0 C0.33 0 0.66 0 1 0 C1 1.98 1 3.96 1 6 C-0.98 6.33 -2.96 6.66 -5 7 C-4.34 6.67 -3.68 6.34 -3 6 C-2.29788106 4.34795544 -1.63028587 2.68076231 -1 1 C-0.67 0.67 -0.34 0.34 0 0 Z " fill="#030303" transform="translate(414,158)"/>
<path d="M0 0 C0.33 0.99 0.66 1.98 1 3 C-0.40445835 5.2636564 -2.1967913 7.0208685 -4 9 C-4.99 8.67 -5.98 8.34 -7 8 C-6.21625 7.236875 -5.4325 6.47375 -4.625 5.6875 C-1.92742283 3.09108195 -1.92742283 3.09108195 0 0 Z " fill="#525251" transform="translate(406,208)"/>
<path d="M0 0 C0.33 0 0.66 0 1 0 C1 3.3 1 6.6 1 10 C0.67 10 0.34 10 0 10 C0 6.7 0 3.4 0 0 Z " fill="#001900" transform="translate(229,189)"/>
<path d="" fill="#000000" transform="translate(0,0)"/>
<path d="" fill="#000000" transform="translate(0,0)"/>
<path d="" fill="#FFFFFF" transform="translate(0,0)"/>
<path d="" fill="#000000" transform="translate(0,0)"/>
<path d="" fill="#FFFFFF" transform="translate(0,0)"/>
<path d="" fill="#555555" transform="translate(0,0)"/>
<path d="" fill="#000000" transform="translate(0,0)"/>
</svg>
